<svg class="lab-bottle" xmlns="http://www.w3.org/2000/svg" viewBox="-191 -110.1 236 303.1"><linearGradient id="a" gradientUnits="userSpaceOnUse" x1="-103.65" y1="205.487" x2="6.471" y2="-97.069"><stop offset="0" stop-color="#F19BB0"/><stop offset="1" stop-color="#301868"/></linearGradient><path fill="url(#a)" d="M35.4 125.6C1 39.6-39.3 17-39.3-25.9v-50.5h8.4c4.7 0 8.4-3.8 8.4-8.4v-16.8c0-4.6-3.8-8.4-8.4-8.4h-84.3c-4.7 0-8.4 3.8-8.4 8.4v16.8c0 4.6 3.8 8.4 8.4 8.4h8.4v50.5c0 42.9-40.2 65.6-74.7 151.6C-192.4 153-220.5 193-73 193c147.6 0 119.4-40 108.4-67.4zM8.2 155.1c-11.8 3.5-35.4 7.6-81.2 7.6-45.8 0-69.3-4-81.2-7.6-4.2-1.2-5.8-6.1-4.3-10.6 3.7-11.3 10.7-30.8 23.8-52.6 32-53.2 65.1 8.4 92.7 8.4 27.6 0 20-26.3 30.7-8.4 13 21.8 20.1 41.3 23.8 52.6 1.5 4.5-.1 9.4-4.3 10.6z"/></svg>